<?xml version="1.0" encoding="UTF-8"?>
<svg id="Camada_1" data-name="Camada 1" xmlns="http://www.w3.org/2000/svg" viewBox="0 0 16 16">
  <path d="M2.84,13.9c-.12.84-.5,1.03-1.41,1.13v.44h3.71v-.44c-1.06-.11-1.45-.23-1.47-1.11,0-.3.02-1.53.28-7,1.19,2.83,2.96,7.13,3.49,8.55h.41c.55-1.37,2.61-5.85,3.89-8.71l-.02,6.38c.02,1.67-.03,1.77-1.31,1.89v.44h4.16v-.44c-1.38-.14-1.42-.22-1.49-1.89l-.06-6c0-.13,0-.26,0-.36v-1.47h-1.25l-3.71,7.93-3.45-7.93h-1.25"/>
  <polygon points="13.85 9 13.85 10.38 2.15 10.38 2.15 9 7.31 9 7.31 3.59 4.88 3.59 4.88 2.2 7.31 2.2 7.31 .54 8.69 .54 8.69 2.2 11.12 2.2 11.12 3.59 8.69 3.59 8.69 9 13.85 9"/>
</svg>