<?xml version="1.0" encoding="UTF-8"?>
<svg id="Camada_1" data-name="Camada 1" xmlns="http://www.w3.org/2000/svg" viewBox="0 0 400 120">
  <defs>
    <style>
      .cls-1 {
        fill: #1d1d1b;
      }
    </style>
  </defs>
  <g>
    <g>
      <path d="M65.51,43.8h-.69v-.73h17.7c2.85,0,5.26.44,7.24,1.32s3.52,2,4.62,3.35,1.89,2.78,2.36,4.29.71,2.98.71,4.44c0,1.85-.39,3.62-1.16,5.32s-1.97,3.16-3.57,4.39-3.62,2.06-6.02,2.5v.14c3.05,1.48,5.88,4.42,8.47,8.82l4.62,7.81c2.08,3.49,3.75,5.7,5.02,6.63s2.5,1.45,3.73,1.56v.56h-9.3c-.39-.51-.76-1-1.11-1.48s-.72-.98-1.11-1.51c-.23-.35-.57-.87-1.02-1.58s-.72-1.1-.82-1.2l-6.11-10.1c-1.23-2.06-2.48-3.73-3.77-5.02s-2.48-2.2-3.59-2.76-2.11-.9-3-1.04-1.94-.21-3.14-.21v18.71c0,3.63,1.85,5.51,5.55,5.62v.56h-16.28v-.56c1.02-.05,1.92-.24,2.71-.57s1.44-.91,1.96-1.74.78-1.93.78-3.31v-38.66c0-2.04-.5-3.47-1.49-4.3s-2.08-1.25-3.26-1.25ZM75.54,67.96h2.92c3.05,0,5.56-.44,7.51-1.32s3.37-2.13,4.25-3.77,1.32-3.63,1.32-5.98c0-1.97-.39-3.89-1.18-5.78s-2.12-3.47-4.01-4.75-4.43-1.93-7.62-1.93c-1.3,0-2.36.1-3.19.31v23.22Z"/>
      <path d="M160.06,57.73c-1.45-3.35-3.47-6.21-6.02-8.64-2.55-2.43-5.44-4.3-8.66-5.58-3.22-1.27-6.58-1.91-10.07-1.91s-7,.66-10.25,2.01c-3.28,1.33-6.19,3.24-8.76,5.69-2.55,2.45-4.55,5.31-5.96,8.61-1.44,3.3-2.14,6.83-2.14,10.57,0,4.87,1.21,9.4,3.59,13.53,2.41,4.15,5.69,7.43,9.84,9.88,4.17,2.43,8.75,3.65,13.75,3.65s9.5-1.22,13.6-3.65c4.11-2.45,7.35-5.74,9.72-9.84,2.36-4.13,3.55-8.57,3.55-13.37,0-3.99-.73-7.64-2.18-10.96ZM154.24,80.81c-1.26,3.28-2.9,5.87-4.94,7.78-2.01,1.91-4.26,3.28-6.68,4.13-2.45.85-4.86,1.26-7.24,1.26-2.65,0-5.21-.46-7.68-1.37-2.47-.92-4.74-2.41-6.77-4.49-2.05-2.08-3.66-4.73-4.84-8.01-1.16-3.28-1.75-7.1-1.75-11.5,0-5,.7-9.2,2.12-12.6,1.41-3.41,3.22-6.04,5.4-7.91,2.18-1.87,4.45-3.18,6.75-3.89,2.33-.68,4.55-1.03,6.71-1.03,2.78,0,5.73.65,8.89,1.95,3.13,1.31,5.92,3.88,8.32,7.73,2.41,3.84,3.62,9.15,3.62,15.96,0,4.72-.62,8.72-1.9,11.98Z"/>
      <path d="M194.86,52.9h-.56c-.32-2.48-1.41-4.64-3.25-6.51s-4.26-2.79-7.27-2.79c-1.97,0-3.71.46-5.24,1.39s-2.71,2.19-3.54,3.78-1.25,3.42-1.25,5.48c0,1.6.25,3.01.75,4.25.5,1.24,1.23,2.33,2.2,3.28s2.12,1.83,3.44,2.66,3.1,1.86,5.34,3.11c3.75,2.06,6.66,4.11,8.75,6.16s3.12,4.85,3.12,8.42c0,2.17-.56,4.27-1.68,6.3s-2.82,3.68-5.08,4.98-5.08,1.94-8.43,1.94c-2.11,0-3.97-.23-5.59-.68s-3.26-1.08-4.93-1.89c-.69-.23-1.17-.35-1.42-.35-.49,0-.8.17-.95.52s-.35,1.1-.61,2.26h-.59v-12.81h.59c.83,3.75,2.45,6.58,4.86,8.5s5.33,2.88,8.78,2.88c2.59,0,4.67-.49,6.23-1.46s2.64-2.15,3.25-3.54.9-2.78.9-4.16c0-2.87-.87-5.21-2.62-7.03s-4.4-3.67-7.97-5.57c-2.45-1.34-4.27-2.38-5.45-3.12s-2.38-1.7-3.59-2.88-2.18-2.57-2.9-4.18-1.08-3.45-1.08-5.53c0-2.41.64-4.71,1.91-6.91s3.08-3.96,5.41-5.29,4.99-2,7.95-2c2.24,0,4.55.38,6.91,1.15.37.19.87.28,1.49.28.76,0,1.28-.52,1.56-1.56h.56v10.93Z"/>
      <path d="M225.23,42.45l15.31,43.8c.81,2.27,1.57,3.91,2.29,4.93s1.41,1.66,2.07,1.93,1.5.45,2.52.54v.56h-16.69v-.56c1.71,0,3.03-.16,3.96-.49s1.39-1.2,1.39-2.64c0-.79-.22-1.84-.66-3.16-.09-.19-.14-.32-.14-.42l-4.55-13.57h-17.7l-4.06,12.56c-.56,1.71-.83,3.09-.83,4.13,0,1.43.36,2.39,1.08,2.86s1.74.71,3.05.71v.56h-12.01v-.56c1.71-.16,3.08-.82,4.11-1.96s1.93-2.89,2.69-5.22l14.44-44.01h3.75ZM213.61,71.53h16.28l-8.33-24.26h-.14l-7.81,24.26Z"/>
      <path d="M251.4,43.8h-.69v-.73h17.7c2.85,0,5.26.44,7.24,1.32s3.52,2,4.62,3.35,1.89,2.78,2.36,4.29c.47,1.5.71,2.98.71,4.44,0,1.85-.39,3.62-1.16,5.32-.78,1.7-1.97,3.16-3.57,4.39s-3.62,2.06-6.02,2.5v.14c3.05,1.48,5.88,4.42,8.47,8.82l4.62,7.81c2.08,3.49,3.75,5.7,5.02,6.63s2.5,1.45,3.73,1.56v.56h-9.3c-.39-.51-.76-1-1.11-1.48s-.72-.98-1.11-1.51c-.23-.35-.57-.87-1.02-1.58s-.72-1.1-.82-1.2l-6.11-10.1c-1.23-2.06-2.48-3.73-3.77-5.02s-2.48-2.2-3.59-2.76-2.11-.9-3-1.04-1.94-.21-3.14-.21v18.71c0,3.63,1.85,5.51,5.55,5.62v.56h-16.28v-.56c1.02-.05,1.92-.24,2.71-.57s1.44-.91,1.96-1.74.78-1.93.78-3.31v-38.66c0-2.04-.5-3.47-1.49-4.3s-2.08-1.25-3.26-1.25ZM261.43,67.96h2.92c3.05,0,5.56-.44,7.51-1.32s3.37-2.13,4.25-3.77,1.32-3.63,1.32-5.98c0-1.97-.39-3.89-1.18-5.78s-2.12-3.47-4.01-4.75c-1.89-1.28-4.43-1.93-7.62-1.93-1.3,0-2.36.1-3.19.31v23.22Z"/>
      <path d="M313.73,43.08v.59c-1.53,0-2.82.43-3.89,1.28s-1.6,2.28-1.6,4.27v38.8c0,1.97.57,3.4,1.7,4.29s2.39,1.34,3.78,1.34v.56h-16.21v-.56c1.48,0,2.76-.43,3.84-1.3s1.61-2.31,1.61-4.32v-38.8c0-2.13-.54-3.59-1.61-4.37s-2.35-1.18-3.84-1.18v-.59h16.21Z"/>
      <path d="M335.18,43.08v.59c-1.53,0-2.82.43-3.89,1.28s-1.6,2.28-1.6,4.27v38.8c0,1.97.57,3.4,1.7,4.29s2.39,1.34,3.78,1.34v.56h-16.21v-.56c1.48,0,2.76-.43,3.84-1.3s1.61-2.31,1.61-4.32v-38.8c0-2.13-.54-3.59-1.61-4.37s-2.35-1.18-3.84-1.18v-.59h16.21Z"/>
    </g>
    <g>
      <path d="M111.83,33.13V11.22h3.41l3.07,9.35,1.07,3.54h.13l1.04-3.54,3.11-9.35h3.41v21.91h-2.67v-10.96c0-.71.03-1.55.08-2.52.06-.97.12-1.93.2-2.87.08-.95.14-1.73.18-2.36h-.1l-1.24,4.28-3.14,8.62h-2l-3.07-8.62-1.27-4.28h-.07c.07.62.13,1.41.2,2.36.07.95.13,1.9.18,2.87.06.97.08,1.81.08,2.52v10.96h-2.61Z"/>
      <path d="M133.27,33.13V11.22h13.56v2.34h-10.76v6.88h9.09v2.37h-9.09v7.95h11.09v2.37h-13.89Z"/>
      <path d="M152.41,33.13V11.22h5.41c3.3,0,5.81.94,7.55,2.82,1.74,1.88,2.61,4.56,2.61,8.03s-.86,6.21-2.59,8.15c-1.73,1.94-4.2,2.91-7.43,2.91h-5.54ZM155.18,30.86h2.44c2.52,0,4.39-.77,5.63-2.32s1.85-3.7,1.85-6.46-.62-4.88-1.85-6.36c-1.24-1.48-3.11-2.22-5.63-2.22h-2.44v17.37Z"/>
      <path d="M172.71,33.13v-2.37h5.44V13.56h-5.44v-2.34h13.69v2.34h-5.44v17.2h5.44v2.37h-13.69Z"/>
      <path d="M198.2,33.13V13.56h-7.22v-2.34h17.23v2.34h-7.21v19.57h-2.81Z"/>
      <path d="M210.69,33.13l7.38-21.91h3.14l7.38,21.91h-2.94l-2.07-6.68h-7.95l-2.11,6.68h-2.84ZM217.37,20.87l-1.04,3.34h6.55l-1.04-3.34c-.38-1.22-.75-2.44-1.12-3.66-.37-1.21-.72-2.46-1.05-3.73h-.13c-.36,1.27-.71,2.51-1.07,3.73-.36,1.21-.72,2.43-1.1,3.66Z"/>
      <path d="M238.28,33.13V13.56h-7.22v-2.34h17.23v2.34h-7.21v19.57h-2.81Z"/>
      <path d="M252.87,33.13v-2.37h5.44V13.56h-5.44v-2.34h13.69v2.34h-5.44v17.2h5.44v2.37h-13.69Z"/>
      <path d="M279.76,33.53c-1.65,0-3.11-.46-4.38-1.37-1.27-.91-2.26-2.22-2.97-3.92-.71-1.7-1.07-3.76-1.07-6.16s.36-4.38,1.07-6.06,1.7-2.97,2.97-3.86c1.27-.89,2.73-1.34,4.38-1.34s3.1.45,4.37,1.34c1.27.89,2.26,2.18,2.97,3.86s1.07,3.7,1.07,6.06-.36,4.46-1.07,6.16c-.71,1.7-1.7,3.01-2.97,3.92-1.27.91-2.73,1.37-4.37,1.37ZM279.76,31.09c1.67,0,3.01-.8,4.02-2.41,1.01-1.6,1.52-3.81,1.52-6.61s-.51-4.92-1.52-6.48c-1.01-1.56-2.35-2.34-4.02-2.34s-3.01.78-4.03,2.34-1.52,3.72-1.52,6.48.51,5.01,1.52,6.61c1.01,1.6,2.35,2.41,4.03,2.41Z"/>
    </g>
  </g>
  <g>
    <path d="M111.51,103.71c0,.38-.06.72-.19,1.03s-.3.56-.54.78-.52.38-.86.5-.74.18-1.21.18h-.86v2.73s0,.06-.03.08-.04.04-.08.06-.09.03-.15.04-.15.01-.24.01-.18,0-.24-.01-.12-.02-.16-.04-.07-.03-.08-.06-.02-.05-.02-.08v-7c0-.16.04-.27.12-.33s.17-.1.28-.1h1.62c.16,0,.32,0,.47.02s.33.04.53.09.41.13.63.25.39.27.54.45.26.39.34.62.12.5.12.78ZM110.45,103.79c0-.31-.06-.57-.17-.77s-.26-.36-.43-.46-.35-.17-.53-.19-.36-.04-.53-.04h-.93v3.04h.91c.3,0,.56-.04.76-.12s.37-.19.51-.33.24-.3.31-.5.11-.4.11-.63Z"/>
    <path d="M119.41,105.19c0,.61-.07,1.17-.22,1.66s-.36.91-.65,1.26-.65.61-1.08.8-.94.28-1.52.28-1.06-.08-1.48-.25-.76-.42-1.03-.74-.47-.73-.61-1.21-.2-1.03-.2-1.66.07-1.14.22-1.63.36-.9.65-1.25.65-.61,1.08-.79.94-.28,1.52-.28,1.04.08,1.46.25.76.41,1.03.74.48.72.62,1.2.2,1.02.2,1.63ZM118.34,105.26c0-.43-.04-.83-.11-1.2s-.2-.69-.38-.96c-.18-.27-.41-.48-.71-.64s-.66-.23-1.1-.23-.8.08-1.1.25-.54.38-.72.66c-.19.27-.32.59-.4.96s-.12.75-.12,1.15c0,.45.04.86.11,1.23s.2.7.37.97c.18.27.41.48.71.63s.66.23,1.11.23.81-.08,1.11-.25.54-.39.73-.67c.18-.28.31-.6.39-.97s.12-.76.12-1.17Z"/>
    <path d="M126.06,108.92s0,.06-.02.08-.04.04-.08.06-.09.03-.16.04-.16.01-.28.01c-.1,0-.18,0-.25-.01s-.12-.02-.16-.04-.07-.04-.09-.07-.04-.07-.06-.12l-.7-1.79c-.08-.2-.17-.39-.25-.56s-.19-.32-.31-.44-.26-.22-.43-.29-.36-.1-.59-.1h-.67v3.23s0,.06-.03.08-.04.04-.08.06-.09.03-.15.04-.15.01-.24.01-.18,0-.24-.01-.12-.02-.16-.04-.07-.03-.08-.06-.02-.05-.02-.08v-7.02c0-.15.04-.26.12-.32s.17-.09.25-.09h1.61c.19,0,.35,0,.48.01s.24.02.34.03c.29.05.55.13.78.24s.41.25.57.42.27.36.34.58.11.46.11.72-.03.48-.1.68-.17.38-.3.53-.28.29-.46.4-.38.21-.6.29c.12.05.24.12.34.21s.2.18.28.3.17.25.25.4.16.32.23.52l.68,1.67c.05.14.09.24.11.3s.02.1.02.13ZM124.54,103.59c0-.3-.07-.55-.2-.75s-.36-.35-.67-.44c-.1-.03-.21-.05-.33-.06s-.28-.02-.48-.02h-.85v2.55h.98c.27,0,.5-.03.69-.1s.35-.15.48-.27.22-.25.28-.41.09-.33.09-.51Z"/>
    <path d="M135.29,108c0,.06,0,.12,0,.16s-.01.09-.02.12-.02.07-.04.09-.04.06-.08.1-.12.1-.25.18-.28.16-.47.23-.4.14-.64.19-.5.08-.79.08c-.49,0-.94-.08-1.33-.25s-.73-.41-1.01-.73-.49-.72-.64-1.19-.23-1.01-.23-1.63.08-1.19.24-1.68.39-.91.68-1.25.64-.6,1.05-.78.86-.27,1.36-.27c.22,0,.43.02.64.06s.4.09.57.16.33.13.47.22.23.15.28.2.09.09.1.12.03.06.04.1.02.08.02.13,0,.11,0,.18c0,.08,0,.14-.01.2s-.02.1-.04.14c-.02.04-.03.06-.06.08s-.05.03-.08.03c-.06,0-.13-.04-.23-.11-.1-.08-.23-.16-.38-.25-.15-.09-.34-.18-.57-.25-.22-.08-.49-.11-.8-.11-.34,0-.65.07-.92.2s-.51.33-.71.59-.35.58-.46.96c-.11.38-.16.81-.16,1.29s.05.91.16,1.27c.1.37.25.68.45.93.19.25.43.44.72.56s.6.19.96.19c.3,0,.57-.04.79-.11.23-.07.42-.16.58-.25.16-.09.29-.17.39-.25.1-.07.18-.11.24-.11.03,0,.05,0,.07.02s.04.03.05.07c.01.03.02.08.03.14s0,.13,0,.22Z"/>
    <path d="M141.68,108.92s0,.06-.02.08-.04.04-.08.06-.09.03-.16.04-.16.01-.28.01c-.1,0-.18,0-.25-.01s-.12-.02-.16-.04-.07-.04-.09-.07-.04-.07-.06-.12l-.7-1.79c-.08-.2-.17-.39-.25-.56s-.19-.32-.31-.44-.26-.22-.43-.29-.36-.1-.59-.1h-.67v3.23s0,.06-.03.08-.04.04-.08.06-.09.03-.15.04-.15.01-.24.01-.18,0-.24-.01-.12-.02-.16-.04-.07-.03-.08-.06-.02-.05-.02-.08v-7.02c0-.15.04-.26.12-.32s.17-.09.25-.09h1.61c.19,0,.35,0,.48.01s.24.02.34.03c.29.05.55.13.78.24s.41.25.57.42.27.36.34.58.11.46.11.72-.03.48-.1.68-.17.38-.3.53-.28.29-.46.4-.38.21-.6.29c.12.05.24.12.34.21s.2.18.28.3.17.25.25.4.16.32.23.52l.68,1.67c.05.14.09.24.11.3s.02.1.02.13ZM140.17,103.59c0-.3-.07-.55-.2-.75s-.36-.35-.67-.44c-.1-.03-.21-.05-.33-.06s-.28-.02-.48-.02h-.85v2.55h.98c.27,0,.5-.03.69-.1s.35-.15.48-.27.22-.25.28-.41.09-.33.09-.51Z"/>
    <path d="M144.15,108.92s0,.06-.02.08-.04.04-.08.06-.09.03-.16.04-.15.01-.24.01-.17,0-.24-.01-.12-.02-.16-.04-.07-.03-.08-.06-.02-.05-.02-.08v-7.28s0-.06.03-.08.05-.04.09-.06.09-.03.16-.04.14-.01.23-.01c.1,0,.18,0,.24.01s.12.02.16.04.07.03.08.06.02.05.02.08v7.28Z"/>
    <path d="M150.24,106.94c0,.36-.07.67-.2.95s-.31.51-.54.71-.51.34-.82.44-.65.15-1.02.15c-.25,0-.49-.02-.71-.06s-.41-.1-.58-.16-.31-.13-.43-.19-.2-.12-.24-.17-.08-.11-.1-.18-.03-.17-.03-.29c0-.09,0-.16.01-.21s.02-.1.04-.14.04-.06.06-.07.05-.02.08-.02c.05,0,.13.03.23.1s.23.14.38.22.34.15.57.22.48.1.76.1c.22,0,.42-.03.6-.09s.34-.14.47-.25.23-.24.3-.4.11-.33.11-.53c0-.21-.05-.4-.15-.55s-.23-.29-.39-.4-.34-.22-.55-.32-.42-.19-.63-.29-.42-.21-.63-.33-.38-.26-.54-.43-.29-.36-.39-.58-.15-.49-.15-.79.06-.6.17-.85.28-.46.48-.62.45-.3.73-.38.59-.13.92-.13c.17,0,.34.01.51.04s.33.07.48.12.28.1.4.16.19.11.23.15.06.07.07.09.02.05.03.08.01.07.02.12,0,.11,0,.18c0,.07,0,.13,0,.19s-.01.1-.03.14-.03.06-.05.08-.05.03-.07.03c-.04,0-.11-.03-.2-.08s-.2-.12-.34-.18-.29-.13-.47-.19-.39-.08-.61-.08c-.21,0-.39.03-.55.08s-.29.13-.39.23-.18.21-.23.33-.08.27-.08.41c0,.21.05.39.15.54s.23.29.39.4.35.22.55.32.42.2.63.3.43.21.63.33.39.26.55.42.29.35.39.57.15.48.15.78Z"/>
    <path d="M156.35,101.92c0,.07,0,.14-.01.19s-.02.1-.04.13-.04.06-.06.07-.05.02-.08.02h-2.13v6.57s0,.06-.02.08-.04.04-.08.06-.09.03-.16.04-.15.01-.24.01-.17,0-.24-.01-.12-.02-.16-.04-.07-.03-.08-.06-.02-.05-.02-.08v-6.57h-2.13s-.06,0-.08-.02-.05-.04-.06-.07-.03-.08-.04-.13-.01-.12-.01-.19,0-.14.01-.2.02-.1.04-.14.04-.06.06-.08.05-.02.08-.02h5.27s.06,0,.08.02.05.04.06.08.03.08.04.14.01.12.01.2Z"/>
    <path d="M163.46,105.19c0,.61-.07,1.17-.22,1.66s-.36.91-.65,1.26-.65.61-1.08.8-.94.28-1.52.28-1.06-.08-1.48-.25-.76-.42-1.03-.74-.47-.73-.61-1.21-.2-1.03-.2-1.66.07-1.14.22-1.63.36-.9.65-1.25.65-.61,1.08-.79.94-.28,1.52-.28,1.04.08,1.46.25.76.41,1.03.74.48.72.62,1.2.2,1.02.2,1.63ZM162.39,105.26c0-.43-.04-.83-.11-1.2s-.2-.69-.38-.96c-.18-.27-.41-.48-.71-.64s-.66-.23-1.1-.23-.8.08-1.1.25-.54.38-.72.66c-.19.27-.32.59-.4.96s-.12.75-.12,1.15c0,.45.04.86.11,1.23s.2.7.37.97c.18.27.41.48.71.63s.66.23,1.11.23.81-.08,1.11-.25.54-.39.73-.67c.18-.28.31-.6.39-.97s.12-.76.12-1.17Z"/>
    <path d="M172.83,108c0,.06,0,.12,0,.16s-.01.09-.02.12-.02.07-.04.09-.04.06-.08.1-.12.1-.25.18-.28.16-.47.23-.4.14-.64.19-.5.08-.79.08c-.49,0-.94-.08-1.33-.25s-.73-.41-1.01-.73-.49-.72-.64-1.19-.23-1.01-.23-1.63.08-1.19.24-1.68.39-.91.68-1.25.64-.6,1.05-.78.86-.27,1.36-.27c.22,0,.43.02.64.06s.4.09.57.16.33.13.47.22.23.15.28.2.09.09.1.12.03.06.04.1.02.08.02.13,0,.11,0,.18c0,.08,0,.14-.01.2s-.02.1-.04.14c-.02.04-.03.06-.06.08s-.05.03-.08.03c-.06,0-.13-.04-.23-.11-.1-.08-.23-.16-.38-.25-.15-.09-.34-.18-.57-.25-.22-.08-.49-.11-.8-.11-.34,0-.65.07-.92.2s-.51.33-.71.59-.35.58-.46.96c-.11.38-.16.81-.16,1.29s.05.91.16,1.27c.1.37.25.68.45.93.19.25.43.44.72.56s.6.19.96.19c.3,0,.57-.04.79-.11.23-.07.42-.16.58-.25.16-.09.29-.17.39-.25.1-.07.18-.11.24-.11.03,0,.05,0,.07.02s.04.03.05.07c.01.03.02.08.03.14s0,.13,0,.22Z"/>
    <path d="M180.41,105.19c0,.61-.07,1.17-.22,1.66s-.36.91-.65,1.26-.65.61-1.08.8-.94.28-1.52.28-1.06-.08-1.48-.25-.76-.42-1.03-.74-.47-.73-.61-1.21-.2-1.03-.2-1.66.07-1.14.22-1.63.36-.9.65-1.25.65-.61,1.08-.79.94-.28,1.52-.28,1.04.08,1.46.25.76.41,1.03.74.48.72.62,1.2.2,1.02.2,1.63ZM179.34,105.26c0-.43-.04-.83-.11-1.2s-.2-.69-.38-.96c-.18-.27-.41-.48-.71-.64s-.66-.23-1.1-.23-.8.08-1.1.25-.54.38-.72.66c-.19.27-.32.59-.4.96s-.12.75-.12,1.15c0,.45.04.86.11,1.23s.2.7.37.97c.18.27.41.48.71.63s.66.23,1.11.23.81-.08,1.11-.25.54-.39.73-.67c.18-.28.31-.6.39-.97s.12-.76.12-1.17Z"/>
    <path d="M190.25,108.92s0,.06-.02.08c-.02.02-.04.04-.08.06-.04.01-.09.03-.15.04-.06,0-.14.01-.24.01-.09,0-.17,0-.24-.01s-.12-.02-.16-.04c-.04-.01-.07-.03-.08-.06s-.02-.05-.02-.08v-6.6h-.01l-2.67,6.63s-.03.05-.05.07-.05.04-.09.05-.09.02-.15.03-.12,0-.2,0c-.08,0-.15,0-.21-.01s-.11-.02-.15-.03-.07-.03-.09-.05-.04-.04-.04-.06l-2.55-6.63h0v6.6s0,.06-.02.08c-.02.02-.04.04-.08.06-.04.01-.09.03-.16.04s-.15.01-.25.01-.18,0-.24-.01-.12-.02-.15-.04c-.04-.01-.06-.03-.08-.06s-.02-.05-.02-.08v-6.97c0-.16.04-.28.13-.35s.18-.11.29-.11h.62c.13,0,.24.01.33.04s.18.06.25.11c.07.05.13.12.18.19.05.08.09.17.12.28l2.17,5.49h.03l2.26-5.47c.04-.12.09-.22.14-.3.05-.08.11-.15.17-.2s.13-.08.21-.11c.08-.02.16-.03.26-.03h.65c.06,0,.12,0,.17.03.05.02.1.04.14.08s.07.08.09.14.04.13.04.21v6.97Z"/>
    <path d="M200.04,108c0,.06,0,.12,0,.16s-.01.09-.02.12-.02.07-.04.09-.04.06-.08.1-.12.1-.25.18-.28.16-.47.23-.4.14-.64.19-.5.08-.79.08c-.49,0-.94-.08-1.33-.25s-.73-.41-1.01-.73-.49-.72-.64-1.19-.23-1.01-.23-1.63.08-1.19.24-1.68.39-.91.68-1.25.64-.6,1.05-.78.86-.27,1.36-.27c.22,0,.43.02.64.06s.4.09.57.16.33.13.47.22.23.15.28.2.09.09.1.12.03.06.04.1.02.08.02.13,0,.11,0,.18c0,.08,0,.14-.01.2s-.02.1-.04.14c-.02.04-.03.06-.06.08s-.05.03-.08.03c-.06,0-.13-.04-.23-.11-.1-.08-.23-.16-.38-.25-.15-.09-.34-.18-.57-.25-.22-.08-.49-.11-.8-.11-.34,0-.65.07-.92.2s-.51.33-.71.59-.35.58-.46.96c-.11.38-.16.81-.16,1.29s.05.91.16,1.27c.1.37.25.68.45.93.19.25.43.44.72.56s.6.19.96.19c.3,0,.57-.04.79-.11.23-.07.42-.16.58-.25.16-.09.29-.17.39-.25.1-.07.18-.11.24-.11.03,0,.05,0,.07.02s.04.03.05.07c.01.03.02.08.03.14s0,.13,0,.22Z"/>
    <path d="M206.43,108.92s0,.06-.02.08-.04.04-.08.06-.09.03-.16.04-.16.01-.28.01c-.1,0-.18,0-.25-.01s-.12-.02-.16-.04-.07-.04-.09-.07-.04-.07-.06-.12l-.7-1.79c-.08-.2-.17-.39-.25-.56s-.19-.32-.31-.44-.26-.22-.43-.29-.36-.1-.59-.1h-.67v3.23s0,.06-.03.08-.04.04-.08.06-.09.03-.15.04-.15.01-.24.01-.18,0-.24-.01-.12-.02-.16-.04-.07-.03-.08-.06-.02-.05-.02-.08v-7.02c0-.15.04-.26.12-.32s.17-.09.25-.09h1.61c.19,0,.35,0,.48.01s.24.02.34.03c.29.05.55.13.78.24s.41.25.56.42.27.36.34.58.11.46.11.72-.03.48-.1.68-.17.38-.3.53-.28.29-.46.4-.38.21-.6.29c.12.05.24.12.34.21s.2.18.29.3.17.25.25.4.16.32.23.52l.68,1.67c.05.14.09.24.11.3s.02.1.02.13ZM204.91,103.59c0-.3-.07-.55-.2-.75s-.36-.35-.67-.44c-.1-.03-.21-.05-.33-.06s-.29-.02-.48-.02h-.85v2.55h.98c.27,0,.5-.03.69-.1s.35-.15.48-.27.22-.25.29-.41.09-.33.09-.51Z"/>
    <path d="M208.9,108.92s0,.06-.02.08-.04.04-.08.06-.09.03-.16.04-.15.01-.24.01-.17,0-.24-.01-.12-.02-.16-.04-.07-.03-.08-.06-.02-.05-.02-.08v-7.28s0-.06.03-.08.05-.04.09-.06.09-.03.16-.04.14-.01.23-.01c.1,0,.18,0,.24.01s.12.02.16.04.07.03.08.06.02.05.02.08v7.28Z"/>
    <path d="M214.99,106.94c0,.36-.07.67-.2.95s-.31.51-.54.71-.51.34-.82.44-.65.15-1.02.15c-.25,0-.49-.02-.71-.06s-.41-.1-.58-.16-.31-.13-.43-.19-.2-.12-.24-.17-.08-.11-.1-.18-.03-.17-.03-.29c0-.09,0-.16.01-.21s.02-.1.04-.14.04-.06.06-.07.05-.02.08-.02c.05,0,.13.03.23.1s.23.14.38.22.34.15.57.22.48.1.76.1c.22,0,.42-.03.6-.09s.34-.14.47-.25.23-.24.3-.4.11-.33.11-.53c0-.21-.05-.4-.15-.55s-.23-.29-.39-.4-.34-.22-.55-.32-.42-.19-.63-.29-.42-.21-.63-.33-.38-.26-.54-.43-.29-.36-.39-.58-.15-.49-.15-.79.06-.6.17-.85.28-.46.48-.62.45-.3.73-.38.59-.13.92-.13c.17,0,.34.01.51.04s.33.07.48.12.28.1.4.16.19.11.23.15.06.07.07.09.02.05.03.08.01.07.02.12,0,.11,0,.18c0,.07,0,.13,0,.19s-.01.1-.03.14-.03.06-.05.08-.05.03-.07.03c-.04,0-.11-.03-.2-.08s-.2-.12-.34-.18-.29-.13-.47-.19-.39-.08-.61-.08c-.21,0-.39.03-.55.08s-.29.13-.39.23-.18.21-.23.33-.08.27-.08.41c0,.21.05.39.15.54s.23.29.39.4.35.22.55.32.42.2.63.3.43.21.63.33.39.26.55.42.29.35.39.57.15.48.15.78Z"/>
    <path d="M221.1,101.92c0,.07,0,.14-.01.19s-.02.1-.04.13-.04.06-.06.07-.05.02-.08.02h-2.13v6.57s0,.06-.02.08-.04.04-.08.06-.09.03-.16.04-.15.01-.24.01-.17,0-.24-.01-.12-.02-.16-.04-.07-.03-.08-.06-.02-.05-.02-.08v-6.57h-2.13s-.06,0-.08-.02-.05-.04-.06-.07-.03-.08-.04-.13-.01-.12-.01-.19,0-.14.01-.2.02-.1.04-.14.04-.06.06-.08.05-.02.08-.02h5.27s.06,0,.08.02.05.04.06.08.03.08.04.14.01.12.01.2Z"/>
    <path d="M228.2,105.19c0,.61-.07,1.17-.22,1.66s-.36.91-.65,1.26-.65.61-1.08.8-.94.28-1.52.28-1.06-.08-1.48-.25-.76-.42-1.03-.74-.47-.73-.61-1.21-.2-1.03-.2-1.66.07-1.14.22-1.63.36-.9.65-1.25.65-.61,1.08-.79.94-.28,1.52-.28,1.04.08,1.46.25.76.41,1.03.74.48.72.62,1.2.2,1.02.2,1.63ZM227.14,105.26c0-.43-.04-.83-.11-1.2s-.2-.69-.38-.96c-.18-.27-.42-.48-.71-.64-.3-.15-.66-.23-1.1-.23s-.8.08-1.1.25c-.3.16-.54.38-.72.66-.18.27-.32.59-.4.96s-.12.75-.12,1.15c0,.45.04.86.11,1.23s.2.7.37.97c.18.27.41.48.71.63.29.15.66.23,1.11.23s.81-.08,1.11-.25c.3-.16.54-.39.73-.67.18-.28.31-.6.39-.97s.12-.76.12-1.17Z"/>
    <path d="M236.73,108.65c0,.07,0,.13-.01.18s-.02.1-.04.13-.04.06-.07.08-.05.02-.08.02h-3.64c-.09,0-.17-.03-.25-.09s-.12-.17-.12-.32v-6.76c0-.15.04-.26.12-.32s.17-.09.25-.09h3.6s.06,0,.08.02.05.04.06.08.03.08.04.13.01.12.01.2c0,.07,0,.13-.01.18s-.02.1-.04.13-.04.06-.06.07-.05.02-.08.02h-2.96v2.38h2.54s.06,0,.08.03.05.04.06.07.03.07.04.13.01.12.01.19c0,.07,0,.13-.01.18s-.02.09-.04.12-.04.05-.06.07-.05.02-.08.02h-2.54v2.71h3.01s.06,0,.08.02.05.04.07.07.03.08.04.13.01.12.01.2Z"/>
    <path d="M245.3,108.65c0,.07,0,.13-.01.18s-.02.1-.04.13-.04.06-.07.08-.05.02-.08.02h-3.64c-.09,0-.17-.03-.25-.09s-.12-.17-.12-.32v-6.76c0-.15.04-.26.12-.32s.17-.09.25-.09h3.6s.06,0,.08.02.05.04.06.08.03.08.04.13.01.12.01.2c0,.07,0,.13-.01.18s-.02.1-.04.13-.04.06-.06.07-.05.02-.08.02h-2.96v2.38h2.54s.06,0,.08.03.05.04.06.07.03.07.04.13.01.12.01.19c0,.07,0,.13-.01.18s-.02.09-.04.12-.04.05-.06.07-.05.02-.08.02h-2.54v2.71h3.01s.06,0,.08.02.05.04.07.07.03.08.04.13.01.12.01.2Z"/>
    <path d="M255.19,108.92s0,.06-.02.08c-.02.02-.04.04-.08.06-.04.01-.09.03-.15.04s-.14.01-.24.01c-.09,0-.17,0-.24-.01s-.12-.02-.16-.04-.07-.03-.08-.06c-.02-.02-.02-.05-.02-.08v-6.6h-.01l-2.67,6.63s-.03.05-.05.07-.05.04-.09.05-.09.02-.15.03-.12,0-.2,0c-.08,0-.15,0-.21-.01s-.11-.02-.15-.03-.07-.03-.09-.05-.04-.04-.04-.06l-2.55-6.63h0v6.6s0,.06-.02.08c-.02.02-.04.04-.08.06-.04.01-.09.03-.16.04s-.15.01-.25.01-.18,0-.24-.01c-.06,0-.12-.02-.15-.04s-.06-.03-.08-.06c-.01-.02-.02-.05-.02-.08v-6.97c0-.16.04-.28.13-.35s.18-.11.29-.11h.62c.13,0,.24.01.33.04.1.02.18.06.25.11s.13.12.18.19.09.17.12.28l2.17,5.49h.03l2.26-5.47c.04-.12.09-.22.14-.3s.11-.15.17-.2.13-.08.21-.11c.08-.02.16-.03.26-.03h.65c.06,0,.12,0,.17.03s.1.04.14.08.07.08.09.14c.02.06.04.13.04.21v6.97Z"/>
    <path d="M264.98,108c0,.06,0,.12,0,.16s-.01.09-.02.12-.02.07-.04.09-.04.06-.08.1-.12.1-.25.18-.28.16-.47.23-.4.14-.64.19-.5.08-.79.08c-.49,0-.94-.08-1.33-.25s-.73-.41-1.01-.73-.49-.72-.64-1.19-.23-1.01-.23-1.63.08-1.19.24-1.68.39-.91.68-1.25.64-.6,1.05-.78.86-.27,1.36-.27c.22,0,.43.02.64.06s.4.09.57.16.33.13.47.22.23.15.28.2.09.09.1.12.03.06.04.1.02.08.02.13,0,.11,0,.18c0,.08,0,.14-.01.2s-.02.1-.04.14-.03.06-.06.08c-.02.02-.05.03-.08.03-.05,0-.13-.04-.23-.11-.1-.08-.23-.16-.38-.25-.16-.09-.34-.18-.57-.25-.22-.08-.49-.11-.8-.11-.34,0-.64.07-.92.2-.28.13-.51.33-.71.59s-.35.58-.46.96c-.11.38-.16.81-.16,1.29s.05.91.16,1.27c.1.37.25.68.45.93s.43.44.72.56c.28.13.6.19.96.19.3,0,.57-.04.79-.11.23-.07.42-.16.58-.25s.29-.17.39-.25c.1-.07.18-.11.24-.11.03,0,.05,0,.07.02.02.01.04.03.05.07s.02.08.03.14,0,.13,0,.22Z"/>
    <path d="M271.37,108.92s0,.06-.02.08-.04.04-.08.06-.09.03-.16.04-.16.01-.28.01c-.1,0-.18,0-.25-.01s-.12-.02-.16-.04-.07-.04-.09-.07-.04-.07-.06-.12l-.7-1.79c-.08-.2-.17-.39-.25-.56s-.19-.32-.31-.44-.26-.22-.43-.29-.36-.1-.59-.1h-.67v3.23s0,.06-.03.08-.04.04-.08.06-.09.03-.15.04-.15.01-.24.01-.18,0-.24-.01-.12-.02-.16-.04-.07-.03-.08-.06-.02-.05-.02-.08v-7.02c0-.15.04-.26.12-.32s.17-.09.25-.09h1.61c.19,0,.35,0,.48.01s.24.02.34.03c.29.05.55.13.78.24s.41.25.57.42.27.36.34.58.11.46.11.72-.03.48-.1.68-.17.38-.3.53-.28.29-.46.4-.38.21-.6.29c.12.05.24.12.34.21s.2.18.28.3.17.25.25.4.16.32.23.52l.68,1.67c.05.14.09.24.11.3s.02.1.02.13ZM269.85,103.59c0-.3-.07-.55-.2-.75s-.36-.35-.67-.44c-.1-.03-.21-.05-.33-.06s-.28-.02-.48-.02h-.85v2.55h.98c.27,0,.5-.03.69-.1s.35-.15.48-.27.22-.25.28-.41.09-.33.09-.51Z"/>
    <path d="M273.84,108.92s0,.06-.02.08-.04.04-.08.06-.09.03-.16.04-.15.01-.24.01-.17,0-.24-.01-.12-.02-.16-.04-.07-.03-.08-.06-.02-.05-.02-.08v-7.28s0-.06.03-.08.05-.04.09-.06.09-.03.16-.04.14-.01.23-.01c.1,0,.18,0,.24.01s.12.02.16.04.07.03.08.06.02.05.02.08v7.28Z"/>
    <path d="M279.92,106.94c0,.36-.07.67-.2.95s-.31.51-.54.71-.51.34-.82.44-.65.15-1.02.15c-.25,0-.49-.02-.71-.06s-.41-.1-.58-.16-.31-.13-.43-.19-.2-.12-.24-.17-.08-.11-.1-.18-.03-.17-.03-.29c0-.09,0-.16.01-.21s.02-.1.04-.14.04-.06.06-.07.05-.02.08-.02c.05,0,.13.03.23.1s.23.14.38.22.34.15.57.22.48.1.76.1c.22,0,.42-.03.6-.09s.34-.14.47-.25.23-.24.3-.4.11-.33.11-.53c0-.21-.05-.4-.15-.55s-.23-.29-.39-.4-.34-.22-.55-.32-.42-.19-.63-.29-.42-.21-.63-.33-.38-.26-.54-.43-.29-.36-.39-.58-.15-.49-.15-.79.06-.6.17-.85.28-.46.48-.62.45-.3.73-.38.59-.13.92-.13c.17,0,.34.01.51.04s.33.07.48.12.28.1.4.16.19.11.23.15.06.07.07.09.02.05.03.08.01.07.02.12,0,.11,0,.18c0,.07,0,.13,0,.19s-.01.1-.03.14-.03.06-.05.08-.05.03-.07.03c-.04,0-.11-.03-.2-.08s-.2-.12-.34-.18-.29-.13-.47-.19-.39-.08-.61-.08c-.21,0-.39.03-.55.08s-.29.13-.39.23-.18.21-.23.33-.08.27-.08.41c0,.21.05.39.15.54s.23.29.39.4.35.22.55.32.42.2.63.3.43.21.63.33.39.26.55.42.29.35.39.57.15.48.15.78Z"/>
    <path d="M286.04,101.92c0,.07,0,.14-.01.19s-.02.1-.04.13-.04.06-.06.07-.05.02-.08.02h-2.13v6.57s0,.06-.02.08-.04.04-.08.06-.09.03-.16.04-.15.01-.24.01-.17,0-.24-.01-.12-.02-.16-.04-.07-.03-.08-.06-.02-.05-.02-.08v-6.57h-2.13s-.06,0-.08-.02-.05-.04-.06-.07-.03-.08-.04-.13-.01-.12-.01-.19,0-.14.01-.2.02-.1.04-.14.04-.06.06-.08.05-.02.08-.02h5.27s.06,0,.08.02.05.04.06.08.03.08.04.14.01.12.01.2Z"/>
    <path d="M293.14,105.19c0,.61-.07,1.17-.22,1.66s-.36.91-.65,1.26-.65.61-1.08.8-.94.28-1.52.28-1.06-.08-1.48-.25-.76-.42-1.03-.74-.47-.73-.61-1.21-.2-1.03-.2-1.66.07-1.14.22-1.63.36-.9.65-1.25.65-.61,1.08-.79.94-.28,1.52-.28,1.04.08,1.46.25.76.41,1.03.74.48.72.62,1.2.2,1.02.2,1.63ZM292.08,105.26c0-.43-.04-.83-.11-1.2s-.2-.69-.38-.96c-.18-.27-.42-.48-.71-.64-.3-.15-.66-.23-1.1-.23s-.8.08-1.1.25c-.3.16-.54.38-.72.66-.18.27-.32.59-.4.96s-.12.75-.12,1.15c0,.45.04.86.11,1.23s.2.7.37.97c.18.27.41.48.71.63.29.15.66.23,1.11.23s.81-.08,1.11-.25c.3-.16.54-.39.73-.67.18-.28.31-.6.39-.97s.12-.76.12-1.17Z"/>
  </g>
  <path class="cls-1" d="M80.56,105.27c7.32-.68,14.64-.69,21.96,0-7.32.69-14.64.68-21.96,0h0Z"/>
  <path class="cls-1" d="M297.48,105.27c7.32-.68,14.64-.69,21.96,0-7.32.69-14.64.68-21.96,0h0Z"/>
</svg>